<mxfile host="app.diagrams.net" agent="Mozilla/5.0 (Macintosh; Intel Mac OS X 10_15_7) AppleWebKit/537.36 (KHTML, like Gecko) Chrome/130.0.0.0 Safari/537.36" version="24.8.4">
  <diagram name="第 1 页" id="XbHZXJMIHSq-wT_Vdfxk">
    <mxGraphModel dx="1242" dy="715" grid="0" gridSize="10" guides="1" tooltips="1" connect="1" arrows="1" fold="1" page="1" pageScale="1" pageWidth="827" pageHeight="1169" math="0" shadow="0">
      <root>
        <mxCell id="0" />
        <mxCell id="1" parent="0" />
        <mxCell id="39ArsAvLZc0LvR8fJ9h_-1" value="&lt;div&gt;&lt;br&gt;&lt;/div&gt;" style="rounded=0;whiteSpace=wrap;html=1;fillColor=#dae8fc;strokeColor=#6c8ebf;" vertex="1" parent="1">
          <mxGeometry x="16" y="180" width="102" height="90" as="geometry" />
        </mxCell>
        <mxCell id="39ArsAvLZc0LvR8fJ9h_-2" style="edgeStyle=orthogonalEdgeStyle;rounded=0;orthogonalLoop=1;jettySize=auto;html=1;exitX=0.5;exitY=1;exitDx=0;exitDy=0;entryX=0.5;entryY=0;entryDx=0;entryDy=0;" edge="1" parent="1" source="39ArsAvLZc0LvR8fJ9h_-3">
          <mxGeometry relative="1" as="geometry">
            <mxPoint x="48" y="275" as="targetPoint" />
            <Array as="points" />
          </mxGeometry>
        </mxCell>
        <mxCell id="39ArsAvLZc0LvR8fJ9h_-3" value="veth" style="rounded=1;whiteSpace=wrap;html=1;fillColor=#f5f5f5;strokeColor=#666666;fontColor=#333333;" vertex="1" parent="1">
          <mxGeometry x="17" y="240" width="60" height="20" as="geometry" />
        </mxCell>
        <mxCell id="39ArsAvLZc0LvR8fJ9h_-7" value="veth" style="rounded=1;whiteSpace=wrap;html=1;fillColor=#f5f5f5;strokeColor=#666666;fontColor=#333333;" vertex="1" parent="1">
          <mxGeometry x="28" y="276" width="60" height="15" as="geometry" />
        </mxCell>
        <mxCell id="39ArsAvLZc0LvR8fJ9h_-12" value="ENI" style="rounded=1;whiteSpace=wrap;html=1;fillColor=#f5f5f5;strokeColor=#666666;fontColor=#333333;" vertex="1" parent="1">
          <mxGeometry x="143" y="360" width="60" height="20" as="geometry" />
        </mxCell>
        <mxCell id="39ArsAvLZc0LvR8fJ9h_-13" value="ebpf" style="rounded=1;whiteSpace=wrap;html=1;fillColor=#f5f5f5;strokeColor=#666666;fontColor=#333333;" vertex="1" parent="1">
          <mxGeometry x="143" y="340" width="60" height="20" as="geometry" />
        </mxCell>
        <mxCell id="39ArsAvLZc0LvR8fJ9h_-14" style="edgeStyle=orthogonalEdgeStyle;rounded=0;orthogonalLoop=1;jettySize=auto;html=1;exitX=0.5;exitY=1;exitDx=0;exitDy=0;entryX=0.5;entryY=0;entryDx=0;entryDy=0;" edge="1" parent="1" source="39ArsAvLZc0LvR8fJ9h_-15" target="39ArsAvLZc0LvR8fJ9h_-13">
          <mxGeometry relative="1" as="geometry">
            <Array as="points">
              <mxPoint x="91" y="330" />
              <mxPoint x="173" y="330" />
            </Array>
          </mxGeometry>
        </mxCell>
        <mxCell id="39ArsAvLZc0LvR8fJ9h_-15" value="Linux Routing" style="rounded=0;whiteSpace=wrap;html=1;fillColor=#d5e8d4;strokeColor=#82b366;" vertex="1" parent="1">
          <mxGeometry x="46" y="306" width="90" height="14" as="geometry" />
        </mxCell>
        <mxCell id="39ArsAvLZc0LvR8fJ9h_-16" style="edgeStyle=orthogonalEdgeStyle;rounded=0;orthogonalLoop=1;jettySize=auto;html=1;exitX=0.5;exitY=1;exitDx=0;exitDy=0;entryX=0.131;entryY=-0.025;entryDx=0;entryDy=0;entryPerimeter=0;" edge="1" parent="1" source="39ArsAvLZc0LvR8fJ9h_-7" target="39ArsAvLZc0LvR8fJ9h_-15">
          <mxGeometry relative="1" as="geometry" />
        </mxCell>
        <mxCell id="39ArsAvLZc0LvR8fJ9h_-21" value="" style="rounded=0;whiteSpace=wrap;html=1;opacity=30;strokeWidth=0;fillColor=#b0e3e6;perimeterSpacing=10;strokeColor=#0e8088;" vertex="1" parent="1">
          <mxGeometry x="16" y="270" width="270" height="110" as="geometry" />
        </mxCell>
        <mxCell id="39ArsAvLZc0LvR8fJ9h_-22" value="cgroup&amp;nbsp;&lt;span style=&quot;background-color: initial;&quot;&gt;ebpf&lt;/span&gt;" style="rounded=1;whiteSpace=wrap;html=1;fillColor=#f5f5f5;strokeColor=#FF3333;fontColor=#333333;" vertex="1" parent="1">
          <mxGeometry x="18" y="230" width="60" height="14" as="geometry" />
        </mxCell>
        <mxCell id="39ArsAvLZc0LvR8fJ9h_-24" value="" style="rounded=0;whiteSpace=wrap;html=1;opacity=30;strokeWidth=0;fillColor=#b0e3e6;perimeterSpacing=10;strokeColor=#0e8088;" vertex="1" parent="1">
          <mxGeometry x="17" y="220" width="100" height="50" as="geometry" />
        </mxCell>
        <mxCell id="39ArsAvLZc0LvR8fJ9h_-25" value="pod&amp;nbsp;&lt;div&gt;kernel&lt;/div&gt;" style="rounded=0;whiteSpace=wrap;html=1;opacity=0;" vertex="1" parent="1">
          <mxGeometry x="64" y="222" width="73" height="60" as="geometry" />
        </mxCell>
        <mxCell id="39ArsAvLZc0LvR8fJ9h_-26" value="" style="rounded=0;whiteSpace=wrap;html=1;opacity=30;" vertex="1" parent="1">
          <mxGeometry x="15" y="180" width="270" height="200" as="geometry" />
        </mxCell>
        <mxCell id="39ArsAvLZc0LvR8fJ9h_-28" value="&lt;font style=&quot;font-size: 14px;&quot;&gt;POD&lt;/font&gt;" style="rounded=0;whiteSpace=wrap;html=1;opacity=0;" vertex="1" parent="1">
          <mxGeometry x="28" y="190" width="60" height="30" as="geometry" />
        </mxCell>
        <mxCell id="39ArsAvLZc0LvR8fJ9h_-29" value="Underlay Network" style="ellipse;shape=cloud;whiteSpace=wrap;html=1;fillColor=none;" vertex="1" parent="1">
          <mxGeometry x="298" y="405" width="215" height="89" as="geometry" />
        </mxCell>
        <mxCell id="39ArsAvLZc0LvR8fJ9h_-30" value="&lt;div&gt;&lt;br&gt;&lt;/div&gt;" style="rounded=0;whiteSpace=wrap;html=1;fillColor=#dae8fc;strokeColor=#6c8ebf;" vertex="1" parent="1">
          <mxGeometry x="699" y="182" width="102" height="90" as="geometry" />
        </mxCell>
        <mxCell id="39ArsAvLZc0LvR8fJ9h_-31" style="edgeStyle=orthogonalEdgeStyle;rounded=0;orthogonalLoop=1;jettySize=auto;html=1;exitX=0.5;exitY=1;exitDx=0;exitDy=0;entryX=0.5;entryY=0;entryDx=0;entryDy=0;" edge="1" parent="1" source="39ArsAvLZc0LvR8fJ9h_-32">
          <mxGeometry relative="1" as="geometry">
            <mxPoint x="732" y="275" as="targetPoint" />
            <Array as="points" />
          </mxGeometry>
        </mxCell>
        <mxCell id="39ArsAvLZc0LvR8fJ9h_-32" value="veth" style="rounded=1;whiteSpace=wrap;html=1;fillColor=#f5f5f5;strokeColor=#666666;fontColor=#333333;" vertex="1" parent="1">
          <mxGeometry x="702" y="244" width="60" height="16" as="geometry" />
        </mxCell>
        <mxCell id="39ArsAvLZc0LvR8fJ9h_-33" value="veth" style="rounded=1;whiteSpace=wrap;html=1;fillColor=#f5f5f5;strokeColor=#666666;fontColor=#333333;" vertex="1" parent="1">
          <mxGeometry x="712" y="275" width="60" height="15" as="geometry" />
        </mxCell>
        <mxCell id="39ArsAvLZc0LvR8fJ9h_-34" value="ENI" style="rounded=1;whiteSpace=wrap;html=1;fillColor=#f5f5f5;strokeColor=#666666;fontColor=#333333;" vertex="1" parent="1">
          <mxGeometry x="597" y="363" width="60" height="20" as="geometry" />
        </mxCell>
        <mxCell id="39ArsAvLZc0LvR8fJ9h_-35" value="ebpf" style="rounded=1;whiteSpace=wrap;html=1;fillColor=#f5f5f5;strokeColor=#666666;fontColor=#333333;" vertex="1" parent="1">
          <mxGeometry x="597" y="343" width="60" height="20" as="geometry" />
        </mxCell>
        <mxCell id="39ArsAvLZc0LvR8fJ9h_-36" style="edgeStyle=orthogonalEdgeStyle;rounded=0;orthogonalLoop=1;jettySize=auto;html=1;exitX=0.5;exitY=1;exitDx=0;exitDy=0;entryX=0.5;entryY=0;entryDx=0;entryDy=0;" edge="1" parent="1" source="39ArsAvLZc0LvR8fJ9h_-37" target="39ArsAvLZc0LvR8fJ9h_-35">
          <mxGeometry relative="1" as="geometry">
            <Array as="points">
              <mxPoint x="712" y="330" />
              <mxPoint x="627" y="330" />
            </Array>
          </mxGeometry>
        </mxCell>
        <mxCell id="39ArsAvLZc0LvR8fJ9h_-37" value="Linux Routing" style="rounded=0;whiteSpace=wrap;html=1;fillColor=#d5e8d4;strokeColor=#82b366;" vertex="1" parent="1">
          <mxGeometry x="667" y="306" width="90" height="14" as="geometry" />
        </mxCell>
        <mxCell id="39ArsAvLZc0LvR8fJ9h_-39" value="" style="rounded=0;whiteSpace=wrap;html=1;opacity=30;strokeWidth=0;fillColor=#b0e3e6;perimeterSpacing=10;strokeColor=#0e8088;" vertex="1" parent="1">
          <mxGeometry x="532" y="273" width="270" height="110" as="geometry" />
        </mxCell>
        <mxCell id="39ArsAvLZc0LvR8fJ9h_-40" value="cgroup&amp;nbsp;&lt;span style=&quot;background-color: initial;&quot;&gt;ebpf&lt;/span&gt;" style="rounded=1;whiteSpace=wrap;html=1;fillColor=#f5f5f5;strokeColor=#FF3333;fontColor=#333333;" vertex="1" parent="1">
          <mxGeometry x="702" y="230" width="60" height="14" as="geometry" />
        </mxCell>
        <mxCell id="39ArsAvLZc0LvR8fJ9h_-41" value="" style="rounded=0;whiteSpace=wrap;html=1;opacity=30;strokeWidth=0;fillColor=#b0e3e6;perimeterSpacing=10;strokeColor=#0e8088;" vertex="1" parent="1">
          <mxGeometry x="699" y="220" width="100" height="50" as="geometry" />
        </mxCell>
        <mxCell id="39ArsAvLZc0LvR8fJ9h_-42" value="pod&amp;nbsp;&lt;div&gt;kernel&lt;/div&gt;" style="rounded=0;whiteSpace=wrap;html=1;opacity=0;" vertex="1" parent="1">
          <mxGeometry x="744" y="220" width="80" height="60" as="geometry" />
        </mxCell>
        <mxCell id="39ArsAvLZc0LvR8fJ9h_-43" value="" style="rounded=0;whiteSpace=wrap;html=1;opacity=30;" vertex="1" parent="1">
          <mxGeometry x="531" y="183" width="270" height="199" as="geometry" />
        </mxCell>
        <mxCell id="39ArsAvLZc0LvR8fJ9h_-44" value="&lt;font style=&quot;font-size: 14px;&quot;&gt;POD&lt;/font&gt;" style="rounded=0;whiteSpace=wrap;html=1;opacity=0;" vertex="1" parent="1">
          <mxGeometry x="712" y="190" width="60" height="30" as="geometry" />
        </mxCell>
        <mxCell id="39ArsAvLZc0LvR8fJ9h_-47" value="" style="endArrow=classic;html=1;rounded=0;exitX=0.5;exitY=1;exitDx=0;exitDy=0;entryX=0.833;entryY=0;entryDx=0;entryDy=0;entryPerimeter=0;" edge="1" parent="1" source="39ArsAvLZc0LvR8fJ9h_-33" target="39ArsAvLZc0LvR8fJ9h_-37">
          <mxGeometry width="50" height="50" relative="1" as="geometry">
            <mxPoint x="424" y="400" as="sourcePoint" />
            <mxPoint x="744" y="307" as="targetPoint" />
          </mxGeometry>
        </mxCell>
        <mxCell id="39ArsAvLZc0LvR8fJ9h_-49" value="" style="curved=1;endArrow=classic;html=1;rounded=0;entryX=0.16;entryY=0.55;entryDx=0;entryDy=0;entryPerimeter=0;exitX=0.581;exitY=0.995;exitDx=0;exitDy=0;exitPerimeter=0;strokeWidth=2;fillColor=#0050ef;strokeColor=#CCCCCC;" edge="1" parent="1" source="39ArsAvLZc0LvR8fJ9h_-26" target="39ArsAvLZc0LvR8fJ9h_-29">
          <mxGeometry width="50" height="50" relative="1" as="geometry">
            <mxPoint x="205.95000000000005" y="380" as="sourcePoint" />
            <mxPoint x="287.5" y="446" as="targetPoint" />
            <Array as="points">
              <mxPoint x="212" y="440" />
            </Array>
          </mxGeometry>
        </mxCell>
        <mxCell id="39ArsAvLZc0LvR8fJ9h_-50" value="" style="curved=1;endArrow=classic;html=1;rounded=0;entryX=0.341;entryY=1.005;entryDx=0;entryDy=0;entryPerimeter=0;exitX=0.875;exitY=0.5;exitDx=0;exitDy=0;exitPerimeter=0;strokeWidth=2;strokeColor=#B3B3B3;" edge="1" parent="1" source="39ArsAvLZc0LvR8fJ9h_-29" target="39ArsAvLZc0LvR8fJ9h_-43">
          <mxGeometry width="50" height="50" relative="1" as="geometry">
            <mxPoint x="502.125" y="449.5" as="sourcePoint" />
            <mxPoint x="707.78" y="476" as="targetPoint" />
            <Array as="points">
              <mxPoint x="594" y="438" />
            </Array>
          </mxGeometry>
        </mxCell>
        <mxCell id="39ArsAvLZc0LvR8fJ9h_-57" value="ClusterIP Service" style="shape=callout;whiteSpace=wrap;html=1;perimeter=calloutPerimeter;opacity=30;position2=0;" vertex="1" parent="1">
          <mxGeometry x="80" y="184" width="117" height="49" as="geometry" />
        </mxCell>
        <mxCell id="39ArsAvLZc0LvR8fJ9h_-58" value="ClusterIP Service" style="shape=callout;whiteSpace=wrap;html=1;perimeter=calloutPerimeter;opacity=30;position2=1;" vertex="1" parent="1">
          <mxGeometry x="585" y="188" width="117" height="49" as="geometry" />
        </mxCell>
      </root>
    </mxGraphModel>
  </diagram>
</mxfile>
